<?xml version="1.0" standalone="no"?>
<!DOCTYPE svg PUBLIC "-//W3C//DTD SVG 20010904//EN"
 "http://www.w3.org/TR/2001/REC-SVG-20010904/DTD/svg10.dtd">
<svg version="1.0" xmlns="http://www.w3.org/2000/svg"
 width="338.000000pt" height="98.000000pt" viewBox="0 0 338.000000 98.000000"
 preserveAspectRatio="xMidYMid meet">

<g transform="translate(0.000000,98.000000) scale(0.100000,-0.100000)"
fill="#000000" stroke="none">
<path d="M0 490 l0 -490 1690 0 1690 0 0 490 0 490 -1690 0 -1690 0 0 -490z
m1638 171 c8 -4 12 -19 10 -32 -4 -29 -45 -34 -61 -7 -19 30 19 60 51 39z
m1036 3 c18 -7 22 -49 5 -59 -5 -4 -21 -4 -35 -1 -26 7 -32 34 -12 54 14 14
20 14 42 6z m186 -19 c0 -14 -8 -29 -20 -35 -11 -6 -20 -17 -20 -25 0 -8 9
-15 20 -15 15 0 20 -7 20 -25 0 -18 -5 -25 -20 -25 -19 0 -20 -7 -20 -100 l0
-100 -30 0 -30 0 0 95 c0 76 -3 97 -15 101 -8 4 -15 17 -15 30 0 15 6 24 15
24 9 0 15 9 15 23 1 30 23 57 57 67 42 12 43 12 43 -15z m-2050 -51 c0 -31 3
-54 8 -52 4 2 19 10 34 17 56 29 139 -15 153 -81 10 -43 -2 -93 -31 -127 -34
-40 -74 -48 -124 -23 -31 15 -40 16 -40 6 0 -9 -11 -14 -30 -14 l-30 0 0 165
0 165 30 0 c30 0 30 0 30 -56z m1750 -109 l0 -165 -30 0 -30 0 0 165 0 165 30
0 30 0 0 -165z m-2348 75 l3 -71 55 71 c48 61 59 70 87 70 18 0 33 -3 33 -6 0
-3 -27 -37 -60 -76 -51 -61 -58 -74 -47 -87 7 -9 37 -44 66 -78 l53 -63 -39 0
c-37 0 -44 5 -94 67 l-54 67 -3 -67 c-3 -67 -3 -67 -32 -67 l-30 0 0 155 0
155 30 0 29 0 3 -70z m298 -71 c0 -44 5 -89 10 -100 12 -22 71 -27 88 -6 6 7
12 51 14 97 3 84 3 85 31 88 l27 3 0 -125 0 -126 -30 0 c-16 0 -30 4 -30 9 0
6 -15 4 -34 -4 -25 -11 -42 -12 -69 -4 -57 15 -67 39 -67 151 l0 98 30 0 30 0
0 -81z m714 66 c38 -18 66 -62 66 -104 l0 -31 -90 0 c-73 0 -90 -3 -90 -15 0
-8 11 -22 24 -31 23 -14 28 -14 60 1 19 9 46 15 61 13 l27 -3 -22 -27 c-30
-39 -84 -53 -134 -36 -54 18 -81 57 -81 118 0 101 88 158 179 115z m256 0 c26
-13 50 -42 50 -59 0 -14 -61 -5 -66 9 -7 16 -59 21 -68 6 -12 -19 6 -39 47
-50 62 -19 87 -38 87 -67 0 -56 -50 -92 -114 -80 -39 8 -86 41 -86 62 0 19 49
18 71 -2 12 -11 27 -14 44 -10 41 10 27 38 -30 59 -81 30 -96 51 -74 101 21
44 85 59 139 31z m170 -110 l0 -125 -30 0 -30 0 0 125 0 125 30 0 30 0 0 -125z
m120 110 c0 -19 9 -19 34 0 11 8 30 15 43 15 29 0 83 -27 83 -41 0 -6 14 1 31
15 38 32 76 33 120 3 40 -27 47 -48 48 -149 l1 -78 -30 0 c-30 0 -30 0 -30 58
0 112 -27 154 -85 132 -30 -11 -35 -28 -35 -116 l0 -74 -30 0 -30 0 0 78 c0
102 -18 126 -81 109 -30 -8 -39 -36 -39 -128 0 -59 0 -59 -30 -59 l-30 0 0
118 c0 65 3 122 7 125 13 13 53 7 53 -8z m480 0 c0 -19 5 -19 36 1 53 35 147
-13 160 -82 8 -45 -3 -89 -32 -124 -34 -39 -75 -47 -124 -22 l-40 19 0 -73 0
-74 -30 0 -30 0 0 185 0 185 30 0 c20 0 30 -5 30 -15z m438 -112 l3 -123 -36
0 -35 0 0 118 c0 65 3 122 7 126 4 4 19 6 33 4 l25 -3 3 -122z m259 115 c5 -7
20 -42 33 -78 13 -36 26 -69 30 -73 5 -5 22 30 40 77 31 81 34 86 62 86 36 0
39 12 -52 -203 -66 -156 -69 -162 -99 -165 -17 -2 -31 -1 -31 1 0 3 11 30 25
60 l24 56 -49 121 c-28 66 -50 123 -50 125 0 11 58 4 67 -7z"/>
<path d="M863 512 c-26 -4 -53 -37 -53 -65 0 -10 8 -32 17 -48 23 -39 72 -41
102 -3 25 32 26 46 6 83 -15 30 -35 39 -72 33z"/>
<path d="M1126 504 c-31 -31 -20 -44 39 -44 48 0 55 2 55 20 0 37 -65 54 -94
24z"/>
<path d="M2302 512 c-33 -5 -56 -45 -48 -84 9 -44 23 -58 61 -58 54 0 83 50
61 104 -14 34 -34 44 -74 38z"/>
</g>
</svg>
